HIERARCHY
ROOT Hips
{
  OFFSET 0 89.5177 0.535
  CHANNELS 6 Xposition Yposition Zposition Zrotation Xrotation Yrotation
  JOINT Spine
  {
    OFFSET 12.0259 -0.162855 1.69034e-005
    CHANNELS 3 Zrotation Xrotation Yrotation
    JOINT Spine1
    {
      OFFSET 15.3169 -0.0121922 0
      CHANNELS 3 Zrotation Xrotation Yrotation
      JOINT Spine2
      {
        OFFSET 15.3176 -0.0121908 0
        CHANNELS 3 Zrotation Xrotation Yrotation
        JOINT Neck
        {
          OFFSET 19.9142 1.56338 0
          CHANNELS 3 Zrotation Xrotation Yrotation
          JOINT Head
          {
            OFFSET 6.92651 0 0
            CHANNELS 3 Zrotation Xrotation Yrotation
            End Site
            {
              OFFSET 20.7666 0 0
            }
          }
          JOINT LeftShoulder
          {
            OFFSET -6.20654 0.708824 7.28219
            CHANNELS 3 Zrotation Xrotation Yrotation
            JOINT LeftArm
            {
              OFFSET 14.108 0 -1.52588e-005
              CHANNELS 3 Zrotation Xrotation Yrotation
              JOINT LeftForeArm
              {
                OFFSET 28.5802 0 0
                CHANNELS 3 Zrotation Xrotation Yrotation
                JOINT LeftHand
                {
                  OFFSET 27.092 0 0
                  CHANNELS 3 Zrotation Xrotation Yrotation
                  End Site
                  {
                    OFFSET 9.55928 -0.186424 0.145352
                  }
                }
              }
            }
          }
          JOINT RightShoulder
          {
            OFFSET -6.20654 0.708866 -7.28218
            CHANNELS 3 Zrotation Xrotation Yrotation
            JOINT RightArm
            {
              OFFSET 14.108 0 1.52588e-005
              CHANNELS 3 Zrotation Xrotation Yrotation
              JOINT RightForeArm
              {
                OFFSET 28.5802 0 0
                CHANNELS 3 Zrotation Xrotation Yrotation
                JOINT RightHand
                {
                  OFFSET 27.092 0 0
                  CHANNELS 3 Zrotation Xrotation Yrotation
                  End Site
                  {
                    OFFSET 9.55929 -0.186417 -0.145354
                  }
                }
              }
            }
          }
        }
      }
    }
  }
  JOINT LeftUpLeg
  {
    OFFSET 0.005 -0.535 8.837
    CHANNELS 3 Zrotation Xrotation Yrotation
    JOINT LeftLeg
    {
      OFFSET 39.9035 0 0
      CHANNELS 3 Zrotation Xrotation Yrotation
      JOINT LeftFoot
      {
        OFFSET 39.6689 0 0
        CHANNELS 3 Zrotation Xrotation Yrotation
        JOINT LeftToe
        {
          OFFSET 10.1624 13.6296 0
          CHANNELS 3 Zrotation Xrotation Yrotation
          End Site
          {
            OFFSET 8.38147 0 0
          }
        }
      }
    }
  }
  JOINT RightUpLeg
  {
    OFFSET 0.005 -0.535 -8.837
    CHANNELS 3 Zrotation Xrotation Yrotation
    JOINT RightLeg
    {
      OFFSET 39.9035 0 0
      CHANNELS 3 Zrotation Xrotation Yrotation
      JOINT RightFoot
      {
        OFFSET 39.6689 0 0
        CHANNELS 3 Zrotation Xrotation Yrotation
        JOINT RightToe
        {
          OFFSET 10.1624 13.6296 0
          CHANNELS 3 Zrotation Xrotation Yrotation
          End Site
          {
            OFFSET 8.38147 0 0
          }
        }
      }
    }
  }
}
MOTION
Frames:	12
Frame Time:	0.0333333
80.6268 87.6634 -333.635 -118.931 67.5541 -158.111 -0.00204642 -0.596005 0.686045 0.00304441 -1.19152 1.37235 0.00304432 -1.19152 1.37234 -8.3043e-012 -9.0191e-006 -5.27751e-005 -7.08123 -7.32823 -4.05212 179.993 0.0202995 -71.7851 -14.4861 18.0767 57.6588 -40.5819 7.95139e-016 7.95139e-016 -31.5522 -68.5219 -35.1261 179.003 -2.03957 63.9329 115.518 7.97929 -108.957 -87.6167 0 4.77083e-015 18.6784 -52.5661 167.236 -18.6883 5.23775 -171.378 -31.6056 1.27222e-014 7.95139e-015 29.5236 14.1605 -12.4054 90 2.78299e-015 -0 -16.0939 -17.9216 -176.522 -25.7771 0 -0 21.3825 -10.9424 12.9522 90 2.18663e-015 -0 
80.6977 87.363 -334.667 -126.474 65.5306 -149.105 -0.761025 -0.649182 0.280918 -1.519 -1.30156 0.553421 -1.519 -1.30156 0.553411 -8.30589e-012 -9.0191e-006 -5.27751e-005 -7.16552 -7.47605 -3.86742 179.948 0.160141 -71.9242 -14.6141 18.3694 57.762 -40.5722 -3.18055e-015 -0 -35.9047 -67.4782 -39.5954 179.068 -1.89199 63.7638 115.075 8.47486 -107.93 -87.5829 9.93923e-017 3.18055e-015 18.9142 -52.7627 167.642 -22.1959 3.61614 -174.512 -31.0706 0 -0 28.0494 12.6473 -9.93912 90 -3.97569e-016 -4.77083e-015 -23.1926 -19.1685 -179.86 -30.1235 -3.97569e-016 9.93923e-017 24.558 -12.2778 12.032 90 -4.47266e-015 -3.18055e-015 
82.2233 87.5236 -335.959 -129.949 65.084 -141.729 -1.09573 -0.511417 -0.541481 -2.19637 -1.0119 -1.09252 -2.19637 -1.0119 -1.09253 -8.30748e-012 -9.0191e-006 -5.27751e-005 -7.13552 -7.52801 -3.87207 179.965 0.107094 -71.9275 -14.5538 18.5343 57.574 -41.3165 0 1.98785e-015 -37.9007 -68.5308 -41.8688 179.166 -1.69803 63.832 114.699 8.63635 -107.308 -87.5196 -2.98177e-016 -0 18.6006 -52.3013 167.096 -18.9764 -3.37607 178.185 -21.5609 -3.18055e-015 -7.95139e-016 19.1773 5.3948 -2.04927 90 -9.93923e-017 -0 -24.0215 -7.70752 178.058 -26.5698 0 1.19271e-015 20.3593 -6.70926 1.97363 90 -5.96354e-016 -3.18055e-015 
81.9728 87.3564 -336.092 -130.932 64.9154 -140.334 -1.22253 -0.514642 -0.629166 -2.45078 -1.01525 -1.26906 -2.45078 -1.01525 -1.26907 -8.30748e-012 -9.0191e-006 -5.27751e-005 -7.1335 -7.7699 -3.9964 -179.979 -0.0638025 -71.9626 -14.1886 18.1178 57.4024 -41.7549 7.95139e-016 -3.97569e-016 -38.3435 -69.918 -42.4907 179.151 -1.72359 63.7709 114.859 8.65067 -107.144 -87.5277 -2.48481e-016 1.59028e-015 18.834 -52.2233 167.146 -19.8299 -2.73724 177.849 -22.3002 0 -7.95139e-016 20.018 5.67649 -1.63033 90 -1.49089e-016 1.59028e-015 -24.9151 -7.03747 177.972 -27.3557 3.18056e-015 -0 21.0729 -6.31996 0.34597 90 -2.98177e-016 -3.18055e-015 
81.8746 87.237 -336.115 -130.001 64.8885 -140.976 -1.20772 -0.559336 -0.646699 -2.42183 -1.10442 -1.30495 -2.42183 -1.10442 -1.30496 -8.30589e-012 -9.0191e-006 -5.27751e-005 -6.88388 -7.4782 -4.00546 179.989 0.0344098 -71.9139 -14.2748 17.9363 57.2702 -42.2155 -2.38542e-015 1.98785e-015 -40.422 -70.5718 -44.5894 179.216 -1.59757 63.8621 115.14 8.44576 -107.446 -87.5695 -3.97569e-016 -4.77083e-015 18.2638 -52.3952 166.355 -19.6036 -3.24527 177.477 -22.3985 3.18055e-015 7.95139e-016 20.3137 5.44621 -0.756675 90 -9.93923e-017 -1.59028e-015 -25.0022 -7.30534 177.773 -28.1677 -1.59028e-015 -7.95139e-016 22.0261 -6.38617 -0.365658 90 -1.98785e-016 -6.36111e-015 
79.8002 87.1808 -334.248 -118.491 67.5221 -157.51 -0.257987 -0.446991 0.455867 -0.512433 -0.895548 0.909931 -0.512434 -0.895548 0.909922 -8.30589e-012 -9.0191e-006 -5.27751e-005 -5.49392 -8.8721 -4.26528 179.441 1.7326 -72.1222 -13.3837 18.2492 57.4961 -42.0874 1.59028e-015 -7.95139e-016 -37.6281 -69.3845 -41.2587 179.519 -0.951846 63.1667 115.372 8.87093 -107.806 -87.2673 -1.98785e-016 -1.59028e-015 18.1551 -52.5586 166.069 -19.3281 5.29843 -172.262 -32.8224 6.36111e-015 1.59028e-015 31.4279 14.3065 -9.70227 90 7.95139e-016 -1.59028e-015 -18.2405 -18.3029 -177.256 -29.3984 -1.19271e-015 -0 25.0383 -11.1932 9.1805 90 -3.97569e-016 -1.59028e-015 
81.4522 87.0873 -336.277 -128.91 65.0274 -142.22 -1.27476 -0.446581 -0.60525 -2.55428 -0.879098 -1.22015 -2.55428 -0.879098 -1.22016 -8.30907e-012 -9.0191e-006 -5.27751e-005 -6.34069 -8.1992 -4.34807 179.433 1.72993 -71.8509 -13.9969 17.8158 57.4212 -41.8864 2.38542e-015 -3.97569e-016 -39.2794 -67.6748 -42.4216 179.49 -1.02051 63.4691 115.988 8.25965 -108.837 -87.153 -7.95139e-016 -3.18055e-015 19.4776 -52.5191 167.173 -19.7357 -3.37703 177.74 -23.4487 3.18055e-015 1.59028e-015 21.5167 5.4278 0.247846 90 -9.93923e-017 -1.59028e-015 -25.152 -7.85777 178.103 -29.1447 3.18056e-015 2.38542e-015 22.7058 -6.5638 -0.615648 90 -3.97569e-016 -0 
79.6402 86.8362 -334.881 -122.54 65.5012 -153.048 -0.675318 -0.904183 0.504148 -1.3429 -1.81375 0.997968 -1.3429 -1.81374 0.997959 -8.30589e-012 -9.0191e-006 -5.27751e-005 -6.76674 -6.84441 -4.90085 179.883 0.35229 -71.6791 -15.4418 17.2484 57.5499 -42.4694 3.18055e-015 -3.97569e-016 -123.639 -72.041 -125.901 179.147 -1.7685 64.2585 116.528 7.08632 -109.893 -87.5038 -3.97569e-016 1.59028e-015 19.2131 -52.6537 166.515 -21.6817 2.77188 -174.249 -32.7709 0 1.59028e-015 31.0831 12.6183 -6.08475 90 9.93923e-016 1.59028e-015 -22.2355 -18.6855 -178.554 -31.6486 -1.59028e-015 1.98785e-016 26.8547 -11.5268 7.38814 90 -3.18055e-015 -0 
79.238 87.086 -333.793 -111.813 67.4646 -165.236 0.144818 -0.694796 0.920926 0.300818 -1.3867 1.84398 0.300818 -1.3867 1.84397 -8.3043e-012 -9.0191e-006 -5.27751e-005 -6.17538 -7.53619 -4.77259 179.304 2.1291 -71.8916 -14.005 16.5603 57.8588 -42.4357 -2.38542e-015 2.78299e-015 -46.1259 -66.3039 -48.9873 179.377 -1.26287 63.7559 116.858 7.45944 -110.778 -87.2358 -7.95139e-016 3.18055e-015 20.1937 -52.3895 166.986 -17.2717 4.46821 -170.588 -33.6341 0 -0 33.2295 14.412 -8.35638 90 9.93923e-016 3.18055e-015 -14.1209 -17.4891 -174.75 -27.6729 1.59028e-015 -0 24.2527 -10.1428 7.65361 90 -2.38542e-015 -3.18055e-015 
80.7325 86.9166 -336.579 -129.48 65.318 -141.952 -1.27237 -0.649443 -0.291615 -2.54827 -1.29178 -0.597452 -2.54827 -1.29178 -0.597461 -8.30589e-012 -9.0191e-006 -5.27751e-005 -6.72729 -6.20595 -5.64633 179.886 0.337331 -71.3845 -15.3037 15.5904 57.5598 -43.3173 3.18055e-015 2.78299e-015 -44.6857 -67.7182 -47.9088 179 -2.11253 64.6668 117.332 6.21795 -112.061 -87.5108 7.95139e-016 3.18055e-015 19.8407 -52.5044 166.372 -20.8867 -3.15704 178.456 -25.2645 0 -1.59028e-015 22.1608 5.12145 -0.163887 90 0 4.77083e-015 -26.1708 -8.98733 178.606 -30.6361 3.18056e-015 1.59028e-015 24.4123 -7.69608 -0.877347 90 3.97569e-016 1.27222e-014 
80.5818 86.9882 -336.289 -125.543 66.0894 -146.777 -1.06338 -0.55156 -0.113449 -2.128 -1.10045 -0.236948 -2.128 -1.10045 -0.236957 -8.30589e-012 -9.0191e-006 -5.27751e-005 -6.18201 -6.71885 -5.41681 179.281 2.17205 -71.6965 -14.8963 16.1546 58.4665 -43.4515 7.95139e-016 -0 -45.18 -65.7889 -47.6269 179.288 -1.47805 64.27 117.712 6.36938 -112.941 -87.2767 7.95139e-016 -1.59028e-015 19.983 -52.387 166.179 -19.3833 -3.06361 179.774 -26.2104 3.18055e-015 7.95139e-016 23.2798 5.6061 -0.438954 90 9.93923e-017 -0 -23.136 -9.052 -179.954 -28.9485 1.59028e-015 -7.95139e-016 23.3896 -7.11947 -1.10735 90 1.98785e-016 6.36111e-015 
80.3701 86.9341 -336.228 -124.802 66.5669 -147.741 -0.889465 -0.796343 0.0671272 -1.77825 -1.59317 0.122081 -1.77825 -1.59317 0.122071 -8.3043e-012 -9.0191e-006 -5.27751e-005 -7.04106 -5.5134 -6.17945 179.829 0.501967 -71.2774 -16.1457 15.5271 58.1985 -44.7604 -1.59028e-015 7.95139e-016 -49.5391 -66.7623 -52.5338 178.972 -2.21916 65.131 118.482 4.83979 -114.292 -87.5868 -1.59028e-015 -1.59028e-015 20.6008 -52.6618 166.094 -19.0038 -3.64289 -179.844 -26.5474 -7.95139e-015 -3.97569e-015 22.9846 4.96178 -0.476246 90 1.49089e-016 3.18055e-015 -22.5956 -8.97062 -179.431 -28.9966 0 -0 23.4661 -7.13353 -1.26503 90 1.98785e-016 -0 
